<svg width="12" height="12" viewBox="0 0 12 12" fill="none" xmlns="http://www.w3.org/2000/svg">
<path d="M3.19812 2.17173C2.87295 2.23763 2.2811 2.54462 1.88903 3.12278C1.51884 3.66867 1.30321 4.49148 1.75265 5.66738C2.10462 6.58823 2.90073 7.52408 3.80295 8.3287C4.58784 9.02868 5.41338 9.59447 5.99994 9.92978C6.5865 9.59447 7.41205 9.02868 8.19694 8.3287C9.09916 7.52408 9.89526 6.58823 10.2472 5.66738C10.6967 4.49148 10.481 3.66867 10.1109 3.12278C9.71879 2.54462 9.12694 2.23763 8.80177 2.17173C7.43387 1.89453 6.66821 2.7731 5.99994 3.71769C5.3316 2.77301 4.55685 1.89639 3.19812 2.17173ZM5.99994 2.35994C6.80177 1.35403 7.90253 0.969178 9.00038 1.19165C9.57792 1.30869 10.3973 1.76349 10.9385 2.56153C11.5016 3.39185 11.7412 4.55967 11.1813 6.0244C10.7445 7.16725 9.80799 8.23183 8.86252 9.07502C7.90968 9.92478 6.8946 10.5963 6.23164 10.943L5.99994 11.0642L5.76824 10.943C5.10528 10.5963 4.0902 9.92478 3.13737 9.07502C2.19189 8.23183 1.25538 7.16725 0.818561 6.0244C0.258711 4.55967 0.498316 3.39185 1.06138 2.56153C1.60256 1.76349 2.42196 1.30869 2.99951 1.19165C4.09735 0.969178 5.19811 1.35403 5.99994 2.35994Z" fill="black" fill-opacity="0.65"/>
</svg>
