<svg width="20" height="20" viewBox="0 0 20 20" fill="none" xmlns="http://www.w3.org/2000/svg">
<path d="M1.25 7.918C1.25 7.22765 1.80964 6.668 2.5 6.668H4.23091C4.47338 6.668 4.70382 6.5624 4.86212 6.37874L8.53546 2.1171C9.03983 1.53194 10 1.88864 10 2.66118V17.4727C10 18.2287 9.07412 18.594 8.55785 18.0417L4.85983 14.0851C4.70224 13.9165 4.4818 13.8208 4.25102 13.8208H2.5C1.80964 13.8208 1.25 13.2611 1.25 12.5708V7.918ZM6.12454 7.46689C5.64964 8.01786 4.95831 8.33467 4.23091 8.33467H2.91667V12.1541H4.25102C4.94336 12.1541 5.6047 12.4412 6.07746 12.947L8.33333 15.3606V4.90435L6.12454 7.46689Z" fill="white"/>
<path d="M12.2054 7.55061L14.6549 10.0001L12.2054 12.4495C12.0427 12.6122 12.0427 12.876 12.2054 13.0388L12.7947 13.628C12.9574 13.7907 13.2212 13.7907 13.3839 13.628L15.8334 11.1786L18.2828 13.628C18.4456 13.7907 18.7094 13.7907 18.8721 13.628L19.4614 13.0388C19.6241 12.8761 19.6241 12.6122 19.4614 12.4495L17.0119 10.0001L19.4614 7.55061C19.6241 7.38789 19.6241 7.12408 19.4614 6.96136L18.8721 6.3721C18.7094 6.20938 18.4456 6.20938 18.2828 6.3721L15.8334 8.82155L13.3839 6.3721C13.2212 6.20938 12.9574 6.20938 12.7947 6.3721L12.2054 6.96136C12.0427 7.12408 12.0427 7.3879 12.2054 7.55061Z" fill="white"/>
</svg>
