<svg width="20" height="20" viewBox="0 0 20 20" fill="none" xmlns="http://www.w3.org/2000/svg">
<path d="M1.66663 7.918C1.66663 7.22765 2.22627 6.668 2.91663 6.668H4.64754C4.89 6.668 5.12045 6.5624 5.27875 6.37874L8.95208 2.1171C9.45646 1.53194 10.4166 1.88864 10.4166 2.66118V17.4727C10.4166 18.2287 9.49074 18.594 8.97448 18.0417L5.27645 14.0851C5.11887 13.9165 4.89842 13.8208 4.66764 13.8208H2.91663C2.22627 13.8208 1.66663 13.2611 1.66663 12.5708V7.918ZM6.54117 7.46689C6.06626 8.01786 5.37493 8.33467 4.64754 8.33467H3.33329V12.1541H4.66764C5.35999 12.1541 6.02133 12.4412 6.49408 12.947L8.74996 15.3606V4.90435L6.54117 7.46689Z" fill="white"/>
<path d="M12.9291 7.65933C12.7853 7.47966 12.7832 7.21713 12.946 7.05441L13.5352 6.46516C13.6979 6.30244 13.9631 6.30146 14.1129 6.47613C15.8299 8.47801 15.8299 11.5234 14.1129 13.5253C13.9631 13.6999 13.6979 13.6989 13.5352 13.5362L12.946 12.947C12.7832 12.7843 12.7853 12.5217 12.9291 12.3421C14.0108 10.9905 14.0108 9.01093 12.9291 7.65933Z" fill="white"/>
<path d="M15.5976 15.5986C15.4349 15.4359 15.4358 15.1728 15.5893 15.0014C18.1047 12.1917 18.1047 7.80973 15.5893 5.00001C15.4358 4.82855 15.4349 4.56548 15.5976 4.40276L16.1869 3.81351C16.3496 3.65079 16.6142 3.65017 16.7694 3.82007C19.9249 7.27438 19.9249 12.727 16.7694 16.1813C16.6142 16.3512 16.3496 16.3506 16.1869 16.1879L15.5976 15.5986Z" fill="white"/>
</svg>
